<svg width="128" height="128" xmlns="http://www.w3.org/2000/svg"><path fill="none" d="M-1-1h130v130H-1z"/><g stroke="null"><path d="M3.446 90.64H7.46V74.796l6.21 13.814c.734 1.67 1.737 2.262 3.705 2.262 1.967 0 2.932-.59 3.665-2.263l6.212-13.815V90.64h4.013V74.82c0-1.542-.618-2.288-1.89-2.674-3.05-.952-5.094-.13-6.02 1.93L17.26 87.707l-5.904-13.633c-.888-2.058-2.97-2.88-6.02-1.93-1.273.387-1.89 1.133-1.89 2.676v15.82zM34.6 77.743h4.013v8.73c-.038.474.152 1.587 2.35 1.622 1.122.018 8.655 0 8.726 0V77.7h4.02c.018 0-.005 14.176-.004 14.236.022 3.496-4.338 4.255-6.347 4.314H34.687v-2.7c.023 0 12.66.003 12.693 0 2.584-.273 2.28-1.557 2.278-1.99v-1.05H41.13c-3.968-.038-6.495-1.77-6.527-3.762-.002-.184.086-8.917-.002-9.005z" fill="#00618a"/><path d="M56.802 90.64h11.536c1.35 0 2.663-.282 3.705-.77 1.736-.798 2.585-1.878 2.585-3.293v-2.933c0-1.157-.965-2.238-2.856-2.958-1.003-.386-2.238-.592-3.434-.592h-4.86c-1.622 0-2.393-.488-2.586-1.568-.04-.13-.04-.232-.04-.36v-1.827c0-.104 0-.207.04-.335.193-.823.617-1.055 2.045-1.184.116 0 .27-.025.386-.025h11.46V72.12H63.514c-1.62 0-2.47.103-3.24.335-2.393.746-3.435 1.93-3.435 3.987v2.34c0 1.8 2.046 3.345 5.48 3.705.385.025.77.05 1.157.05h4.167c.154 0 .31 0 .424.027 1.274.103 1.814.334 2.2.797.23.232.308.464.308.72v2.342c0 .283-.193.644-.578.952-.348.31-.926.515-1.698.566-.155 0-.27.026-.425.026H56.802v2.675zm42.858-4.655c0 2.752 2.045 4.296 6.173 4.605.386.025.772.05 1.158.05h10.457v-2.674h-10.534c-2.353 0-3.24-.592-3.24-2.007V72.12H99.66v13.865zm-22.47.14v-9.537c0-2.423 1.7-3.892 5.063-4.356.348-.05.735-.077 1.083-.077h7.617c.386 0 .735.026 1.12.077 3.365.464 5.066 1.933 5.066 4.356v9.537c0 1.966-.724 3.018-2.39 3.704l3.954 3.566h-4.66l-3.197-2.886-3.22.204h-4.29c-.736 0-1.51-.104-2.36-.335-2.55-.697-3.788-2.038-3.788-4.255zm4.33-.232c0 .13.038.258.077.413.232 1.108 1.276 1.727 2.86 1.727h3.646l-3.348-3.023h4.66l2.92 2.636c.537-.286.892-.725 1.015-1.29.04-.127.04-.256.04-.385v-9.15c0-.103 0-.232-.04-.36-.232-1.032-1.276-1.624-2.822-1.624h-6.07c-1.78 0-2.938.773-2.938 1.984v9.073z" fill="#e48e00"/><path d="M120.977 67.683c-2.466-.067-4.35.162-5.96.842-.46.193-1.19.198-1.264.77.252.265.29.66.49.983.385.623 1.035 1.457 1.614 1.894.633.478 1.286.99 1.964 1.403 1.208.736 2.556 1.156 3.718 1.893.685.435 1.366.983 2.034 1.473.33.244.553.62.982.773v-.07c-.226-.288-.284-.682-.49-.982l-.913-.91c-.89-1.185-2.022-2.224-3.225-3.087-.96-.69-3.106-1.62-3.507-2.735l-.07-.07c.68-.077 1.477-.324 2.104-.492 1.055-.282 1.997-.21 3.086-.49l1.473-.42v-.282c-.55-.565-.942-1.312-1.542-1.824-1.57-1.337-3.285-2.673-5.05-3.787-.98-.618-2.19-1.02-3.226-1.543-.35-.176-.962-.268-1.193-.56-.546-.696-.842-1.577-1.263-2.386a90.574 90.574 0 0 1-2.525-5.33c-.532-1.217-.88-2.416-1.543-3.508-3.185-5.236-6.613-8.396-11.924-11.502-1.13-.66-2.49-.922-3.928-1.263-.77-.045-1.543-.092-2.314-.14-.47-.196-.96-.772-1.403-1.05-1.758-1.112-6.27-3.53-7.573-.352-.823 2.006 1.23 3.964 1.963 4.98.515.713 1.175 1.513 1.543 2.315.242.527.284 1.055.49 1.613.51 1.374.955 2.868 1.614 4.138.334.642.7 1.32 1.123 1.894.258.352.7.507.77 1.052-.432.606-.457 1.547-.7 2.314-1.096 3.457-.683 7.753.91 10.31.49.786 1.643 2.47 3.228 1.824 1.386-.564 1.076-2.314 1.473-3.857.09-.35.035-.607.21-.84v.07c.422.84.843 1.682 1.264 2.524.934 1.505 2.592 3.077 3.997 4.14.73.55 1.304 1.5 2.246 1.822v-.07h-.07c-.183-.285-.47-.403-.702-.63-.55-.54-1.16-1.208-1.613-1.825-1.277-1.734-2.407-3.633-3.436-5.61-.49-.944-.918-1.985-1.332-2.946-.16-.37-.158-.93-.49-1.122-.455.704-1.123 1.273-1.474 2.104-.56 1.33-.634 2.95-.84 4.63-.125.043-.07.013-.142.07-.977-.237-1.32-1.242-1.683-2.105-.918-2.18-1.09-5.694-.28-8.205.208-.65 1.153-2.696.77-3.296-.182-.6-.784-.947-1.122-1.404a11.037 11.037 0 0 1-1.12-1.964c-.752-1.7-1.103-3.61-1.894-5.33-.38-.823-1.018-1.654-1.543-2.385-.582-.81-1.233-1.406-1.684-2.385-.16-.348-.38-.905-.14-1.263.075-.242.18-.343.42-.42.407-.315 1.54.103 1.963.28 1.125.466 2.064.91 3.017 1.542.457.303.92.89 1.472 1.052h.632c.987.227 2.093.07 3.015.35 1.63.496 3.09 1.267 4.418 2.105 4.043 2.552 7.348 6.185 9.61 10.52.363.698.52 1.364.84 2.104.647 1.493 1.46 3.03 2.104 4.49.642 1.455 1.268 2.925 2.175 4.137.477.638 2.32.98 3.156 1.334.587.248 1.548.506 2.104.84 1.062.642 2.09 1.404 3.086 2.106.498.35 2.028 1.12 2.104 1.753z" fill="#00618a"/><path d="M89.626 40.96a4.983 4.983 0 0 0-1.262.14v.07h.07c.245.505.678.83.982 1.263l.7 1.473.07-.07c.435-.306.634-.796.632-1.543-.174-.183-.2-.413-.35-.632-.2-.29-.59-.455-.842-.7z" fill="#00618a"/></g></svg>